
<svg width="78px" height="47px" viewBox="0 0 78 47" version="1.1" xmlns="http://www.w3.org/2000/svg" xmlns:xlink="http://www.w3.org/1999/xlink">
    <!-- Generator: Sketch 43.2 (39069) - http://www.bohemiancoding.com/sketch -->
    <desc>Created with Sketch.</desc>
    <defs></defs>
    <g id="Page-1" stroke="none" stroke-width="1" fill="none" fill-rule="evenodd">
        <path d="M75.6992,32.2503 C75.7162,32.1683 75.5992,30.7583 75.4762,29.3693 L75.9332,29.0223 C76.0882,28.9033 76.1202,28.6823 75.9992,28.5263 C75.8802,28.3703 75.6602,28.3413 75.5032,28.4593 L75.4052,28.5353 C75.3102,27.4873 75.2902,26.6993 75.2902,26.6993 C75.2902,26.6993 76.3882,25.9363 77.4932,25.1143 C78.6002,24.2993 77.6702,23.0833 76.5892,23.9343 C75.5062,24.7833 74.4812,25.6423 74.4812,25.6423 C74.4812,25.6423 73.7282,25.4123 72.7392,25.0443 L72.8412,24.9673 C72.9942,24.8503 73.0252,24.6303 72.9082,24.4723 C72.7892,24.3193 72.5692,24.2883 72.4122,24.4063 L71.9572,24.7563 C70.6512,24.2713 69.3202,23.7843 69.2372,23.7803 C69.0702,23.7713 68.4002,23.9683 68.4042,24.0643 C68.4092,24.1133 69.2672,24.5633 70.1682,25.0423 L70.0642,25.1223 C70.0372,25.1433 70.0332,25.1813 70.0532,25.2093 C70.0742,25.2373 70.1152,25.2423 70.1422,25.2223 L70.2882,25.1063 C70.3752,25.1523 70.4602,25.1983 70.5432,25.2403 L70.4832,25.2883 C70.4542,25.3113 70.4482,25.3493 70.4692,25.3773 C70.4902,25.4053 70.5322,25.4103 70.5592,25.3903 L70.6662,25.3083 C70.8352,25.3983 71.0012,25.4833 71.1562,25.5723 L71.0472,25.6523 C71.0192,25.6763 71.0142,25.7143 71.0362,25.7413 C71.0572,25.7703 71.0982,25.7733 71.1252,25.7543 L71.2782,25.6373 C71.4462,25.7293 71.5982,25.8173 71.7312,25.8913 L71.6352,25.9633 C71.6072,25.9833 71.6012,26.0243 71.6242,26.0533 C71.6442,26.0823 71.6832,26.0853 71.7102,26.0633 L71.8472,25.9613 C72.0372,26.0733 72.1622,26.1543 72.1892,26.1913 C72.3662,26.4233 72.7792,26.9623 72.7792,26.9623 C72.7792,26.9623 70.9942,28.4033 70.6012,28.8163 C70.4552,28.9693 70.2512,29.2043 70.0552,29.4423 C69.5622,29.2633 68.8082,28.9913 68.6612,28.9573 C68.4362,28.9013 68.2592,28.8543 68.1752,28.9083 C68.0962,28.9643 67.9012,29.0353 67.9702,29.0973 C68.0282,29.1463 69.1372,29.8953 69.5212,30.1573 L69.6232,30.2903 C69.7732,30.7323 70.2042,31.9983 70.2402,32.0643 C70.2792,32.1473 70.3992,31.9793 70.4712,31.9163 C70.5472,31.8543 70.5502,31.6693 70.5572,31.4383 C70.5572,31.2813 70.4962,30.4883 70.4542,29.9623 C70.7362,29.8373 71.0162,29.7033 71.2022,29.6003 C71.7042,29.3343 73.5672,27.9923 73.5672,27.9923 C73.5672,27.9923 73.9772,28.5323 74.1532,28.7633 C74.1812,28.7973 74.2282,28.9433 74.2852,29.1543 L74.1492,29.2593 C74.1212,29.2813 74.1152,29.3183 74.1392,29.3463 C74.1572,29.3753 74.2022,29.3833 74.2252,29.3603 L74.3222,29.2883 C74.3612,29.4343 74.4002,29.6053 74.4462,29.7923 L74.2942,29.9073 C74.2672,29.9293 74.2622,29.9683 74.2802,29.9973 C74.3052,30.0253 74.3432,30.0273 74.3692,30.0103 L74.4802,29.9263 C74.5192,30.0993 74.5602,30.2803 74.6052,30.4663 L74.4952,30.5483 C74.4682,30.5693 74.4632,30.6103 74.4862,30.6403 C74.5072,30.6673 74.5492,30.6733 74.5752,30.6513 L74.6332,30.6033 C74.6542,30.6933 74.6752,30.7903 74.6962,30.8813 L74.5462,30.9953 C74.5192,31.0153 74.5162,31.0563 74.5362,31.0843 C74.5572,31.1113 74.5992,31.1163 74.6252,31.0953 L74.7292,31.0153 C74.9512,32.0163 75.1592,32.9613 75.2042,32.9773 C75.2972,33.0043 75.6662,32.4153 75.6992,32.2503" id="Fill-480" fill="#4D4D4C"></path>
        <path d="M0.1616,46.2 C15.4756,43.364 27.9566,38.517 38.1996,31.118 C51.0366,21.845 52.6186,16.838 54.2276,12.964 C55.8366,9.09 53.5716,4.503 52.0826,3.013 C50.6136,1.544 44.5046,-2.363 38.4476,3.426 C30.6386,10.89 45.5596,10.651 37.9116,3.388 C31.8716,-2.347 25.7806,1.547 24.3146,3.013 C22.8246,4.503 20.5626,9.09 22.1706,12.964 C23.7776,16.838 25.7866,21.286 38.1996,31.118 C47.3516,38.368 58.2686,39.477 68.1906,31.394" id="Stroke-481" stroke="#545451" stroke-width="0.6" stroke-dasharray="2,2"></path>
    </g>
</svg>