
<svg width="24px" height="23px" viewBox="0 0 24 23" version="1.1" xmlns="http://www.w3.org/2000/svg" xmlns:xlink="http://www.w3.org/1999/xlink">
    <!-- Generator: Sketch 43.2 (39069) - http://www.bohemiancoding.com/sketch -->
    <desc>Created with Sketch.</desc>
    <defs></defs>
    <g id="Page-1" stroke="none" stroke-width="1" fill="none" fill-rule="evenodd">
        <g id="7-krzy-poprawki-final-cs6" transform="translate(-417.000000, -198.000000)" fill="#636462">
            <g id="Group-498" transform="translate(0.000000, 0.118000)">
                <path d="M417.9594,206.6035 C418.0724,206.7345 420.5334,208.3095 422.9614,209.8465 L422.9624,211.0275 C422.9624,211.4295 423.2884,211.7555 423.6904,211.7555 C424.0924,211.7555 424.4184,211.4295 424.4184,211.0275 L424.4174,210.7695 C426.2534,211.9275 427.5774,212.8755 427.5774,212.8755 C427.5774,212.8755 427.4474,215.6325 427.4114,218.4715 C427.3734,221.3085 430.5214,221.3085 430.4844,218.4715 C430.4464,215.6325 430.3184,212.8755 430.3184,212.8755 C430.3184,212.8755 431.6414,211.9275 433.4774,210.7695 L433.4774,211.0275 C433.4774,211.4295 433.8034,211.7555 434.2054,211.7555 C434.6064,211.7555 434.9334,211.4295 434.9334,211.0275 L434.9334,209.8465 C437.3614,208.3095 439.8224,206.7345 439.9354,206.6035 C440.1594,206.3425 440.6694,204.9975 440.5074,204.8855 C440.4284,204.8325 438.6104,205.6755 436.7004,206.5525 L436.7004,206.2875 C436.7004,206.2135 436.6414,206.1565 436.5694,206.1565 C436.4974,206.1565 436.4384,206.2135 436.4384,206.2875 L436.4384,206.6725 C436.2604,206.7535 436.0814,206.8355 435.9034,206.9185 L435.9034,206.7595 C435.9034,206.6875 435.8454,206.6275 435.7734,206.6295 C435.7014,206.6275 435.6424,206.6875 435.6424,206.7595 L435.6424,207.0375 C435.2824,207.2015 434.9304,207.3615 434.5964,207.5105 L434.5964,207.2315 C434.5964,207.1605 434.5384,207.1005 434.4654,207.1005 C434.3944,207.1005 434.3354,207.1605 434.3354,207.2315 L434.3354,207.6255 C433.9744,207.7865 433.6414,207.9315 433.3524,208.0525 L433.3524,207.8045 C433.3524,207.7325 433.2934,207.6745 433.2214,207.6745 C433.1494,207.6745 433.0914,207.7325 433.0914,207.8045 L433.0914,208.1605 C432.6734,208.3305 432.3824,208.4325 432.2824,208.4325 L430.2834,208.4325 C430.2834,208.4325 430.1544,203.7015 429.9684,202.5425 C429.8984,202.1125 429.7684,201.4825 429.6214,200.8645 C430.5344,200.2775 431.9194,199.3805 432.1664,199.1835 C432.5394,198.8835 432.8374,198.6495 432.8514,198.4495 C432.8624,198.2505 432.9874,197.8405 432.8004,197.8755 C432.6464,197.9085 430.0314,198.7855 429.1184,199.0895 L428.7764,199.0895 C427.8634,198.7855 425.2484,197.9085 425.0944,197.8775 C424.9074,197.8405 425.0324,198.2505 425.0444,198.4495 C425.0574,198.6495 425.3554,198.8855 425.7294,199.1835 C425.9764,199.3805 427.3604,200.2775 428.2734,200.8645 C428.1264,201.4825 427.9964,202.1125 427.9274,202.5425 C427.7404,203.7015 427.6114,208.4325 427.6114,208.4325 L425.6124,208.4325 C425.5124,208.4325 425.2204,208.3305 424.8034,208.1605 L424.8034,207.8045 C424.8034,207.7325 424.7454,207.6745 424.6734,207.6745 C424.6014,207.6745 424.5424,207.7325 424.5424,207.8045 L424.5424,208.0525 C424.2524,207.9315 423.9204,207.7865 423.5594,207.6255 L423.5594,207.2315 C423.5604,207.1605 423.5004,207.1005 423.4284,207.1005 C423.3564,207.1005 423.2984,207.1585 423.2984,207.2315 L423.2984,207.5105 C422.9644,207.3615 422.6124,207.2015 422.2524,207.0375 L422.2524,206.7595 C422.2524,206.6875 422.1934,206.6275 422.1214,206.6275 C422.0494,206.6295 421.9914,206.6875 421.9924,206.7595 L421.9914,206.9185 C421.8134,206.8355 421.6354,206.7535 421.4564,206.6725 L421.4564,206.2875 C421.4564,206.2135 421.3974,206.1565 421.3254,206.1565 C421.2534,206.1565 421.1944,206.2135 421.1944,206.2875 L421.1944,206.5505 C419.2844,205.6755 417.4664,204.8325 417.3874,204.8855 C417.2254,204.9975 417.7344,206.3425 417.9594,206.6035" id="Fill-446" transform="translate(428.947377, 209.236322) scale(1, -1) translate(-428.947377, -209.236322) "></path>
            </g>
        </g>
    </g>
</svg>